<svg xmlns="http://www.w3.org/2000/svg" enable-background="new 0 0 32 32" viewBox="0 0 32 32"><path d="M25.12078,23.69462c-0.82872,0-1.50107,0.67187-1.50107,1.50107v3.30216H8.3803v-3.30216c0-0.82921-0.67236-1.50107-1.50107-1.50107s-1.50107,0.67187-1.50107,1.50107v4.80324c0,0.8292,0.67236,1.50107,1.50107,1.50107h18.24155c0.82872,0,1.50107-0.67187,1.50107-1.50107v-4.80324C26.62185,24.36648,25.94949,23.69462,25.12078,23.69462z"/><path d="M14.93869,25.34179c0.57414,0.57542,1.54853,0.57664,2.12261-0.00006c0,0.00006,6.10006-6.09951,6.10006-6.09951c0.58636-0.58587,0.58636-1.53625,0-2.12261c-0.58636-0.58636-1.53625-0.58636-2.12261,0l-3.53769,3.5372V1.9789c-0.02993-1.96087-2.96757-1.98286-3.00214,0.00006c0-0.00006,0,18.67784,0,18.67784l-3.53768-3.5372c-1.41391-1.37061-3.49676,0.70302-2.12255,2.12261C8.83863,19.24222,14.93869,25.34179,14.93869,25.34179z"/></svg>